Coordinates
version=1
nRows=11
nColumns=40
inDegrees=yes

Units are S.I. units (second, meters, Newtons, ...)
Angles are in degrees.

endheader
time	pelvis_tilt	pelvis_list	pelvis_rotation	pelvis_tx	pelvis_ty	pelvis_tz	hip_flexion_r	hip_adduction_r	hip_rotation_r	knee_angle_r	knee_angle_r_beta	ankle_angle_r	subtalar_angle_r	mtp_angle_r	hip_flexion_l	hip_adduction_l	hip_rotation_l	knee_angle_l	knee_angle_l_beta	ankle_angle_l	subtalar_angle_l	mtp_angle_l	lumbar_extension	lumbar_bending	lumbar_rotation	arm_flex_r	arm_add_r	arm_rot_r	elbow_flex_r	pro_sup_r	wrist_flex_r	wrist_dev_r	arm_flex_l	arm_add_l	arm_rot_l	elbow_flex_l	pro_sup_l	wrist_flex_l	wrist_dev_l
     52.14000000	     -3.22957023	     -5.86297753	     -1.68695827	      1.00525638	      0.92437667	      0.45578644	     19.22110909	      3.62393567	    -14.28449892	     18.38958391	     18.38958391	      5.06182576	      0.16777744	     -4.58370047	     14.31586018	    -12.23472418	     -4.87965171	     54.71943145	     54.71943145	     12.98298352	    -18.63396812	      8.30618945	     -9.99687926	      7.66090474	      2.48231596	     -2.35734213	    -11.70387609	    -16.40367515	     25.34987864	     46.50528982	      0.00000000	      0.00000000	     13.29574792	    -10.20988582	     -4.46334745	     65.67616524	     46.45356435	      0.00000000	      0.00000000
     52.15200000	     -3.20233965	     -5.80086061	     -1.43035059	      1.00487468	      0.92544118	      0.45733099	     18.44963816	      3.67363158	    -14.45205133	     17.90259769	     17.90259769	      5.29921617	      0.37075159	     -5.05245484	     16.40411538	    -12.36912989	     -3.98268649	     57.83020404	     57.83020404	     12.67608845	    -18.78186548	     11.51906627	    -10.16850266	      7.62342916	      2.68104442	     -0.78090853	    -11.86236179	    -15.53140688	     26.64278388	     46.40526001	      0.00000000	      0.00000000	     12.95129118	     -9.73154908	     -3.87143907	     63.12958164	     46.43058341	      0.00000000	      0.00000000
     52.16400000	     -3.15871351	     -5.74739037	     -1.13874073	      1.00432647	      0.92642044	      0.45875799	     17.65351517	      3.74871895	    -14.55286216	     17.38597440	     17.38597440	      5.60693485	      0.46850241	     -5.27169666	     18.37643955	    -12.50401446	     -3.19985398	     60.35519365	     60.35519365	     12.00332727	    -18.96298880	     12.76117543	    -10.35212219	      7.57683936	      2.50232383	      1.22773980	    -11.90544971	    -15.12970637	     27.86102900	     46.34295209	      0.00000000	      0.00000000	     12.18733887	     -9.56516666	     -3.40758504	     61.10702218	     46.38374239	      0.00000000	      0.00000000
     52.17600000	     -3.23240240	     -5.75325436	     -0.84942244	      1.00351425	      0.92710268	      0.46015733	     17.04240547	      3.88023587	    -14.70938153	     16.93613573	     16.93613573	      5.86441362	      0.50675029	     -5.39831262	     20.47006619	    -12.66924395	     -2.44020849	     62.44335210	     62.44335210	     11.50062076	    -19.07313795	     13.44104984	    -10.45110609	      7.57399770	      2.64096698	      3.09993595	    -12.01013789	    -14.86935073	     28.87594575	     46.29762776	      0.00000000	      0.00000000	     11.42523741	     -9.22255587	     -3.01229943	     59.52870838	     46.33351738	      0.00000000	      0.00000000
     52.18800000	     -3.25416407	     -5.60354355	     -0.56946322	      1.00246663	      0.92789140	      0.46137067	     16.40227016	      3.85657821	    -14.69455044	     16.48411733	     16.48411733	      5.88344045	      0.35394490	     -6.05205775	     22.50467197	    -12.50449386	     -1.66591661	     64.12498209	     64.12498209	     12.21179458	    -19.12935621	     16.78041023	    -10.57665587	      7.40158730	      3.19720526	      4.57143161	    -12.41105868	    -13.37181174	     30.52112322	     46.14060202	      0.00000000	      0.00000000	     11.84091097	     -8.59602278	     -2.16551360	     55.24954211	     46.25617517	      0.00000000	      0.00000000
     52.20000000	     -3.34119735	     -5.56005717	     -0.23138363	      1.00124604	      0.92848623	      0.46261420	     15.84955510	      3.93923146	    -14.76699584	     16.05780310	     16.05780310	      6.08714211	      0.24183505	     -6.10696052	     24.48681803	    -12.50598423	     -1.01519674	     65.10673347	     65.10673347	     12.11718792	    -19.21071900	     17.07188936	    -10.70334905	      7.30746890	      3.02532105	      6.68256489	    -12.46666335	    -13.02245979	     31.93796926	     46.07610323	      0.00000000	      0.00000000	     10.94567491	     -8.51820450	     -1.72853968	     53.62453215	     46.20235878	      0.00000000	      0.00000000
     52.21200000	     -3.44779207	     -5.51695945	      0.09690396	      0.99982759	      0.92900470	      0.46378891	     15.35463781	      4.03480161	    -14.73562461	     15.65821432	     15.65821432	      6.17566518	     -0.09373222	     -6.37406774	     26.45101402	    -12.42389389	     -0.39202999	     65.60719980	     65.60719980	     12.60534756	    -19.25680489	     18.46973969	    -10.79624536	      7.22232049	      3.49009317	      8.16959489	    -12.98870586	    -11.38595571	     33.89133684	     45.90923187	      0.00000000	      0.00000000	     11.06313219	     -8.06682635	     -0.94614592	     50.04134100	     46.12936721	      0.00000000	      0.00000000
     52.22400000	     -3.59584451	     -5.53355219	      0.45735433	      0.99828865	      0.92938558	      0.46492534	     14.90503190	      4.16889737	    -14.86505882	     15.25703245	     15.25703245	      6.36106256	     -0.20362657	     -6.33639976	     28.34491439	    -12.40292078	      0.13832065	     65.49073741	     65.49073741	     12.76192879	    -19.30397495	     18.52340736	    -10.87499532	      7.17350461	      3.29751240	     10.35547629	    -13.04600836	    -11.17676569	     35.30238685	     45.85665466	      0.00000000	      0.00000000	     10.04358665	     -8.05121905	     -0.62712838	     48.69419172	     46.08190187	      0.00000000	      0.00000000
     52.23600000	     -3.69814081	     -5.50435993	      0.81895362	      0.99672959	      0.92986684	      0.46596085	     14.40677742	      4.26722066	    -14.90474044	     14.84201422	     14.84201422	      6.51491567	     -0.42094515	     -6.26213506	     30.01729944	    -12.26820524	      0.58046973	     64.76311914	     64.76311914	     13.06562725	    -19.34644204	     18.84178872	    -11.01523865	      7.07598097	      3.07535237	     12.55922968	    -13.09941331	    -10.70692957	     36.91521804	     45.78167191	      0.00000000	      0.00000000	      9.24478925	     -8.03772313	     -0.27044144	     46.70810394	     46.02874402	      0.00000000	      0.00000000
     52.24800000	     -3.81781133	     -5.50314678	      1.16512995	      0.99514373	      0.93031346	      0.46695583	     13.91463478	      4.39456746	    -14.95394028	     14.40109904	     14.40109904	      6.66343914	     -0.60005469	     -6.16977367	     31.55400205	    -12.12990134	      0.93354580	     63.48811826	     63.48811826	     13.38320384	    -19.35941865	     19.23409240	    -11.11829106	      7.01197862	      2.93744944	     14.67315006	    -13.21096633	    -10.10311207	     38.63214592	     45.69602039	      0.00000000	      0.00000000	      8.53053227	     -7.98302279	      0.06709958	     44.51966632	     45.97657068	      0.00000000	      0.00000000
     52.26000000	     -3.93156092	     -5.46783658	      1.46925614	      0.99357120	      0.93068507	      0.46777467	     13.45970964	      4.46743073	    -15.00035183	     14.04700277	     14.04700277	      6.84955796	     -0.77170540	     -6.09224636	     32.90664469	    -11.91626796	      1.15762572	     61.73516323	     61.73516323	     13.83770968	    -19.36958317	     20.07016062	    -11.18709944	      6.91405702	      3.67721489	     15.79551297	    -14.30714514	     -7.69008956	     41.57720768	     45.47281088	      0.00000000	      0.00000000	      8.96106075	     -7.39330892	      0.52968867	     40.36309645	     45.92878272	      0.00000000	      0.00000000
